<svg xmlns="http://www.w3.org/2000/svg" version="1.1" xmlns:xlink="http://www.w3.org/1999/xlink" xmlns:svgjs="http://svgjs.com/svgjs" width="1440" height="800" preserveAspectRatio="none" viewBox="0 0 1440 800"><g mask="url(&quot;#SvgjsMask1143&quot;)" fill="none"><rect width="1440" height="800" x="0" y="0" fill="rgba(21, 67, 96, 1)"></rect><path d="M0,640.252C122.446,636.575,245.59,608.377,344.788,536.5C441.175,466.66,506.632,361.178,542.004,247.525C574.824,142.073,559.775,30.766,535.735,-77.027C513.179,-178.164,458.25,-262.899,407.961,-353.5C343.83,-469.039,323.563,-634.41,200.144,-681.63C78.1,-728.324,-43.671,-612.509,-168.565,-574.08C-291.452,-536.269,-432.93,-544.061,-528.062,-457.568C-627.109,-367.515,-683.836,-233.001,-690.749,-99.315C-697.405,29.4,-623.257,143.054,-565.068,258.058C-509.163,368.547,-460.927,488.242,-358.358,557.616C-254.717,627.716,-125.066,644.008,0,640.252" fill="#0e2c3e"></path><path d="M1440 1168.123C1520.614 1174.356 1606.016 1207.29 1677.647 1169.786 1750.443 1131.672 1791.641 1050.12 1815.535 971.501 1837.729 898.477 1831.584 819.29 1806.03 747.373 1783.241 683.238 1731.567 636.614 1680.538 591.573 1635.283 551.629 1579.466 532.523 1527.611 501.626 1455.036 458.383 1396.535 352.237 1314.815 373.659 1233.998 394.845 1245.749 521.4490000000001 1195.984 588.559 1151.72 648.251 1065.436 672.414 1041.185 742.659 1015.614 816.727 1030.413 900.913 1063.65 971.873 1096.724 1042.484 1155.715 1098.724 1224.853 1134.776 1290.532 1169.025 1366.148 1162.413 1440 1168.123" fill="#1c5a82"></path></g><defs><mask id="SvgjsMask1143"><rect width="1440" height="800" fill="#ffffff"></rect></mask></defs></svg>