<svg xmlns="http://www.w3.org/2000/svg" version="1.1" xmlns:xlink="http://www.w3.org/1999/xlink" xmlns:svgjs="http://svgjs.com/svgjs" width="1440" height="560" preserveAspectRatio="none" viewBox="0 0 1440 560"><g mask="url(&quot;#SvgjsMask1169&quot;)" fill="none"><rect width="1440" height="560" x="0" y="0" fill="url(#SvgjsLinearGradient1170)"></rect><path d="M -207.82333607954178,190 C -111.82,236.4 80.18,429.2 272.1766639204582,422 C 464.18,414.8 560.18,161.2 752.1766639204582,154 C 944.18,146.8 1040.18,387.6 1232.1766639204582,386 C 1424.18,384.4 1670.61,132.2 1712.1766639204582,146 C 1753.74,159.8 1494.44,393.2 1440,455" stroke="rgba(137, 143, 206, 1)" stroke-width="2"></path><path d="M -684.0954890245414,385 C -588.1,343.6 -396.1,179 -204.09548902454137,178 C -12.1,177 83.9,383.4 275.9045109754586,380 C 467.9,376.6 563.9,150 755.9045109754586,161 C 947.9,172 1099.09,447.4 1235.9045109754586,435 C 1372.72,422.6 1399.18,166.2 1440,99" stroke="rgba(137, 143, 206, 1)" stroke-width="2"></path><path d="M -741.549462481486,71 C -645.55,133.2 -453.55,376.2 -261.54946248148605,382 C -69.55,387.8 26.45,110 218.45053751851395,100 C 410.45,90 506.45,340.4 698.450537518514,332 C 890.45,323.6 1030.14,40 1178.450537518514,58 C 1326.76,76 1387.69,349.2 1440,422" stroke="rgba(51, 121, 194, 0.58)" stroke-width="2"></path><path d="M -746.8462158443568,91 C -650.85,159.2 -458.85,418 -266.84621584435683,432 C -74.85,446 21.15,151.8 213.15378415564317,161 C 405.15,170.2 501.15,498 693.1537841556432,478 C 885.15,458 1023.78,61.6 1173.1537841556433,61 C 1322.52,60.4 1386.63,392.2 1440,475" stroke="rgba(137, 143, 206, 1)" stroke-width="2"></path></g><defs><mask id="SvgjsMask1169"><rect width="1440" height="560" fill="#ffffff"></rect></mask><linearGradient x1="15.28%" y1="-39.29%" x2="84.72%" y2="139.29%" gradientUnits="userSpaceOnUse" id="SvgjsLinearGradient1170"><stop stop-color="#0e2a47" offset="0"></stop><stop stop-color="rgba(151, 151, 151, 1)" offset="1"></stop></linearGradient></defs></svg>